ply
format ascii 1.0
comment VCGLIB generated
element vertex 88
property float x
property float y
property float z
element face 176
property list uchar int vertex_indices
end_header
200 200 30 
200 0 30 
200 200 0 
200 0 0 
0 200 30 
0 200 0 
0 0 30 
0 0 0 
114.8191 113.0261 30 
114.9544 112.521 30 
115 112 30 
115 88 30 
114.9544 87.47906 30 
114.8191 86.97395 30 
113.9284 114.2981 30 
113.5 114.5981 30 
113.0261 114.8191 30 
114.5981 86.50001 30 
114.2981 86.07164 30 
113.9284 85.70187 30 
85.18092 113.0261 30 
85.40192 113.5 30 
85.70187 113.9284 30 
86.07164 114.2981 30 
88 115 30 
112 115 30 
112.521 114.9544 30 
114.2981 113.9284 30 
114.5981 113.5 30 
113.5 85.40192 30 
113.0261 85.18092 30 
112.521 85.04558 30 
112 85 30 
88 85 30 
87.47906 85.04558 30 
86.97395 85.18092 30 
86.50001 85.40192 30 
86.07164 85.70187 30 
85.70187 86.07164 30 
86.50001 114.5981 30 
86.97395 114.8191 30 
87.47906 114.9544 30 
85 88 30 
85 112 30 
85.04558 112.521 30 
85.40192 86.50001 30 
85.18092 86.97395 30 
85.04558 87.47906 30 
85.18092 86.97395 0 
85.40192 86.50001 0 
85.04558 87.47906 0 
114.9544 112.521 0 
114.8191 113.0261 0 
112 85 0 
112.521 85.04558 0 
113.0261 85.18092 0 
113.5 85.40192 0 
113.9284 85.70187 0 
114.2981 86.07164 0 
114.5981 86.50001 0 
115 112 0 
85.18092 113.0261 0 
85.40192 113.5 0 
85.70187 113.9284 0 
85.70187 86.07164 0 
86.07164 85.70187 0 
86.50001 85.40192 0 
112 115 0 
88 115 0 
87.47906 114.9544 0 
86.97395 114.8191 0 
86.50001 114.5981 0 
86.07164 114.2981 0 
85.04558 112.521 0 
85 112 0 
85 88 0 
86.97395 85.18092 0 
87.47906 85.04558 0 
88 85 0 
114.5981 113.5 0 
114.2981 113.9284 0 
113.9284 114.2981 0 
113.5 114.5981 0 
113.0261 114.8191 0 
112.521 114.9544 0 
114.8191 86.97395 0 
114.9544 87.47906 0 
115 88 0 
3 0 1 2 
3 2 1 3 
3 4 0 5 
3 5 0 2 
3 6 4 7 
3 7 4 5 
3 1 6 3 
3 3 6 7 
3 8 9 0 
3 0 9 10 
3 0 10 1 
3 10 11 1 
3 1 11 12 
3 1 12 13 
3 14 0 15 
3 15 0 16 
3 13 17 1 
3 1 17 18 
3 1 18 19 
3 20 21 4 
3 4 21 22 
3 4 22 23 
3 24 25 0 
3 0 25 26 
3 0 26 16 
3 14 27 0 
3 0 27 28 
3 0 28 8 
3 19 29 1 
3 1 29 30 
3 1 30 6 
3 6 30 31 
3 6 31 32 
3 32 33 6 
3 6 33 34 
3 6 34 35 
3 35 36 6 
3 6 36 37 
3 6 37 38 
3 23 39 4 
3 4 39 40 
3 4 40 0 
3 0 40 41 
3 0 41 24 
3 42 43 4 
3 4 43 44 
3 4 44 20 
3 38 45 6 
3 6 45 46 
3 6 46 4 
3 4 46 47 
3 4 47 42 
3 48 49 7 
3 48 7 50 
3 51 52 2 
3 53 54 3 
3 3 54 55 
3 3 55 56 
3 56 57 3 
3 3 57 58 
3 3 58 59 
3 51 2 60 
3 61 5 62 
3 62 5 63 
3 49 64 7 
3 7 64 65 
3 7 65 66 
3 67 68 5 
3 5 68 69 
3 5 69 70 
3 70 71 5 
3 5 71 72 
3 5 72 63 
3 61 73 5 
3 5 73 74 
3 5 74 7 
3 7 74 75 
3 7 75 50 
3 66 76 7 
3 7 76 77 
3 7 77 3 
3 3 77 78 
3 3 78 53 
3 52 79 2 
3 2 79 80 
3 2 80 81 
3 81 82 2 
3 2 82 83 
3 2 83 5 
3 5 83 84 
3 5 84 67 
3 59 85 3 
3 3 85 86 
3 3 86 2 
3 2 86 87 
3 2 87 60 
3 75 74 42 
3 42 74 43 
3 68 24 69 
3 69 24 41 
3 69 41 70 
3 70 41 40 
3 70 40 71 
3 71 40 39 
3 71 39 72 
3 72 39 23 
3 72 23 63 
3 63 23 22 
3 63 22 62 
3 62 22 21 
3 62 21 61 
3 61 21 20 
3 61 20 73 
3 73 20 44 
3 73 44 74 
3 74 44 43 
3 68 67 24 
3 24 67 25 
3 60 10 51 
3 51 10 9 
3 51 9 52 
3 52 9 8 
3 52 8 79 
3 79 8 28 
3 79 28 80 
3 80 28 27 
3 80 27 81 
3 81 27 14 
3 81 14 82 
3 82 14 15 
3 82 15 83 
3 83 15 16 
3 83 16 84 
3 84 16 26 
3 84 26 67 
3 67 26 25 
3 60 87 10 
3 10 87 11 
3 53 32 54 
3 54 32 31 
3 54 31 55 
3 55 31 30 
3 55 30 56 
3 56 30 29 
3 56 29 57 
3 57 29 19 
3 57 19 58 
3 58 19 18 
3 58 18 59 
3 59 18 17 
3 59 17 85 
3 85 17 13 
3 85 13 86 
3 86 13 12 
3 86 12 87 
3 87 12 11 
3 53 78 32 
3 32 78 33 
3 75 42 50 
3 50 42 47 
3 50 47 48 
3 48 47 46 
3 48 46 49 
3 49 46 45 
3 49 45 64 
3 64 45 38 
3 64 38 65 
3 65 38 37 
3 65 37 66 
3 66 37 36 
3 66 36 76 
3 76 36 35 
3 76 35 77 
3 77 35 34 
3 77 34 78 
3 78 34 33 
