ply
format ascii 1.0
comment VCGLIB generated
element vertex 80
property float x
property float y
property float z
element face 156
property list uchar int vertex_indices
end_header
85 112 0 
85 88 0 
85 112 30 
85 88 30 
85.04558 112.521 30 
85.04558 112.521 0 
85.18092 113.0261 30 
85.18092 113.0261 0 
85.40192 113.5 30 
85.40192 113.5 0 
85.70187 113.9284 30 
85.70187 113.9284 0 
86.07164 114.2981 30 
86.07164 114.2981 0 
86.50001 114.5981 30 
86.50001 114.5981 0 
86.97395 114.8191 30 
86.97395 114.8191 0 
87.47906 114.9544 30 
87.47906 114.9544 0 
88 115 30 
88 115 0 
112 115 0 
112 115 30 
112.521 114.9544 30 
112.521 114.9544 0 
113.0261 114.8191 30 
113.0261 114.8191 0 
113.5 114.5981 30 
113.5 114.5981 0 
113.9284 114.2981 30 
113.9284 114.2981 0 
114.2981 113.9284 30 
114.2981 113.9284 0 
114.5981 113.5 30 
114.5981 113.5 0 
114.8191 113.0261 30 
114.8191 113.0261 0 
114.9544 112.521 30 
114.9544 112.521 0 
115 112 30 
115 112 0 
115 88 0 
115 88 30 
114.9544 87.47906 30 
114.9544 87.47906 0 
114.8191 86.97395 30 
114.8191 86.97395 0 
114.5981 86.50001 30 
114.5981 86.50001 0 
114.2981 86.07164 30 
114.2981 86.07164 0 
113.9284 85.70187 30 
113.9284 85.70187 0 
113.5 85.40192 30 
113.5 85.40192 0 
113.0261 85.18092 30 
113.0261 85.18092 0 
112.521 85.04558 30 
112.521 85.04558 0 
112 85 30 
112 85 0 
88 85 0 
88 85 30 
87.47906 85.04558 30 
87.47906 85.04558 0 
86.97395 85.18092 30 
86.97395 85.18092 0 
86.50001 85.40192 30 
86.50001 85.40192 0 
86.07164 85.70187 30 
86.07164 85.70187 0 
85.70187 86.07164 30 
85.70187 86.07164 0 
85.40192 86.50001 30 
85.40192 86.50001 0 
85.18092 86.97395 30 
85.18092 86.97395 0 
85.04558 87.47906 30 
85.04558 87.47906 0 
3 0 1 2 
3 2 1 3 
3 0 2 4 
3 0 4 5 
3 5 4 6 
3 5 6 7 
3 7 6 8 
3 7 8 9 
3 9 8 10 
3 9 10 11 
3 11 10 12 
3 11 12 13 
3 13 12 14 
3 13 14 15 
3 15 14 16 
3 15 16 17 
3 17 16 18 
3 17 18 19 
3 19 18 20 
3 19 20 21 
3 22 21 23 
3 23 21 20 
3 22 23 24 
3 22 24 25 
3 25 24 26 
3 25 26 27 
3 27 26 28 
3 27 28 29 
3 29 28 30 
3 29 30 31 
3 31 30 32 
3 31 32 33 
3 33 32 34 
3 33 34 35 
3 35 34 36 
3 35 36 37 
3 37 36 38 
3 37 38 39 
3 39 38 40 
3 39 40 41 
3 42 41 43 
3 43 41 40 
3 42 43 44 
3 42 44 45 
3 45 44 46 
3 45 46 47 
3 47 46 48 
3 47 48 49 
3 49 48 50 
3 49 50 51 
3 51 50 52 
3 51 52 53 
3 53 52 54 
3 53 54 55 
3 55 54 56 
3 55 56 57 
3 57 56 58 
3 57 58 59 
3 59 58 60 
3 59 60 61 
3 62 61 63 
3 63 61 60 
3 62 63 64 
3 62 64 65 
3 65 64 66 
3 65 66 67 
3 67 66 68 
3 67 68 69 
3 69 68 70 
3 69 70 71 
3 71 70 72 
3 71 72 73 
3 73 72 74 
3 73 74 75 
3 75 74 76 
3 75 76 77 
3 77 76 78 
3 77 78 79 
3 79 78 3 
3 79 3 1 
3 7 9 21 
3 62 1 61 
3 61 1 42 
3 62 65 1 
3 1 65 67 
3 1 67 79 
3 21 22 41 
3 42 1 41 
3 41 1 0 
3 41 0 21 
3 21 0 5 
3 21 5 7 
3 42 45 61 
3 61 45 47 
3 61 47 49 
3 15 9 13 
3 13 9 11 
3 15 17 9 
3 9 17 19 
3 9 19 21 
3 22 25 41 
3 41 25 27 
3 41 27 29 
3 49 51 61 
3 61 51 53 
3 61 53 59 
3 59 53 55 
3 59 55 57 
3 67 69 79 
3 79 69 71 
3 79 71 77 
3 77 71 73 
3 77 73 75 
3 35 29 33 
3 33 29 31 
3 35 37 29 
3 29 37 39 
3 29 39 41 
3 6 4 20 
3 43 40 20 
3 66 3 78 
3 66 64 3 
3 3 64 63 
3 3 63 2 
3 4 2 20 
3 20 2 63 
3 20 63 43 
3 43 63 60 
3 43 60 58 
3 6 20 8 
3 8 20 18 
3 8 18 16 
3 16 14 8 
3 8 14 12 
3 8 12 10 
3 52 50 48 
3 48 46 52 
3 52 46 44 
3 52 44 43 
3 26 24 40 
3 40 24 23 
3 40 23 20 
3 58 56 43 
3 43 56 54 
3 43 54 52 
3 74 72 76 
3 76 72 70 
3 76 70 78 
3 78 70 68 
3 78 68 66 
3 26 40 28 
3 28 40 38 
3 28 38 36 
3 36 34 28 
3 28 34 32 
3 28 32 30 
